<svg width="16" height="16" viewBox="0 0 24 24" xmlns="http://www.w3.org/2000/svg"><path d="m15.92 4.944 2.22-2.22a2.1 2.1 0 0 1 1.49-.616c.54 0 1.08.205 1.49.616.823.823.822 2.16 0 2.983l-2.218 2.218a2.11 2.11 0 0 1-2.982-2.98m7.633 17.193L13.337 11.923 15.31 9.95c.645.386 1.37.592 2.1.592a4.097 4.097 0 0 0 2.905-1.2l2.219-2.22a4.114 4.114 0 0 0 0-5.81A4.078 4.078 0 0 0 19.63.106a4.08 4.08 0 0 0-2.904 1.203l-2.22 2.22a4.081 4.081 0 0 0-1.203 2.904c0 .754.215 1.471.593 2.102l-1.973 1.972-1.974-1.973c.942-1.576.747-3.649-.61-5.005L6.105.293A.999.999 0 1 0 4.69 1.707l3.236 3.237a2.1 2.1 0 0 1 .52 2.088L3.654 2.24A.999.999 0 1 0 2.24 3.654l4.792 4.792a2.1 2.1 0 0 1-2.09-.52L1.708 4.688A.999.999 0 1 0 .293 6.103L3.529 9.34a4.103 4.103 0 0 0 2.906 1.201c.73 0 1.455-.206 2.1-.592l1.974 1.974L.293 22.138a.999.999 0 1 0 1.414 1.414l10.216-10.215 10.216 10.215a.993.993 0 0 0 .707.293 1 1 0 0 0 .707-1.707" fill="#9e9e9e" fill-rule="evenodd"/></svg>