<svg xmlns="http://www.w3.org/2000/svg" aria-hidden="true" style="vertical-align:-.125em" width="70" height="60" viewBox="0 0 512 512"><path fill="#fff" d="M138.9 24.97c-28.1-28.117-73.7-28.117-101.8 0L25 37.09C-3.1 65.21-3.1 110.8 25 138.9l197.2 197.3c8.7 8.6 19.4 14.9 31.2 18.3l100 28.6c8.4 2.4 17.4 0 23.6-7 6.1-5.3 8.5-14.3 6.1-22.7l-28.6-100c-3.4-11.8-9.7-22.5-18.3-31.2L138.9 24.97zm-67 33.94c8.5-9.37 23.7-9.37 33.1 0L134.1 88 88 134.1l-29.1-30c-9.4-8.5-9.4-23.7 0-33.07l13-12.12zM308.3 266.6l16.8 58.5-58.5-16.8c-4-1.1-7.5-3.2-10.4-6.1L121.9 168l46.1-46.1 134.2 134.3c2.9 2.9 5 6.4 6.1 10.4zM312 64c-13.3 0-24 10.75-24 24 0 13.3 10.7 24 24 24h112c22.09 0 40 17.9 40 40v272c0 22.1-17.91 40-40 40H152c-22.1 0-40-17.9-40-40V312c0-13.3-10.7-24-24-24s-24 10.7-24 24v112c0 48.6 39.4 88 88 88h272c48.6 0 88-39.4 88-88V152c0-48.6-39.4-88-88-88H312z"/></svg>