<svg width="16" height="16" viewBox="0 0 24 24" xmlns="http://www.w3.org/2000/svg"><g fill="#9e9e9e" fill-rule="evenodd"><path d="m19.544 12.059-1.703.256v5.546H6.16v-5.546l-1.703-.256A2.856 2.856 0 0 1 2 9.225 2.889 2.889 0 0 1 4.797 6.34c.068.008.138.015.208.017l1.317.056.571-1.19A5.628 5.628 0 0 1 12 2a5.628 5.628 0 0 1 5.107 3.225l.571 1.189 1.317-.056c.07-.002.137-.01.207-.017A2.888 2.888 0 0 1 22 9.225a2.856 2.856 0 0 1-2.456 2.834ZM6.16 22h11.682v-2.14H6.16V22ZM19.114 4.339c-.069 0-.134.018-.204.02A7.662 7.662 0 0 0 12 0a7.662 7.662 0 0 0-6.91 4.36c-.069-.002-.135-.02-.204-.02A4.887 4.887 0 0 0 0 9.225c0 2.449 1.808 4.459 4.16 4.813v8.338c0 .894.73 1.624 1.623 1.624h12.434c.893 0 1.624-.73 1.624-1.624v-8.338c2.35-.354 4.16-2.364 4.16-4.813a4.886 4.886 0 0 0-4.887-4.886Z" id="Fill-1"/></g></svg>